<mxfile host="app.diagrams.net" modified="2021-03-28T13:37:47.892Z" agent="5.0 (Windows NT 10.0; Win64; x64) AppleWebKit/537.36 (KHTML, like Gecko) Chrome/88.0.4324.190 Safari/537.36" etag="yJEi65OZRVYLXLBCMBg2" version="14.5.3" type="github">
  <diagram id="31b32b95-0358-9bc7-6ba0-a27c054ed1a7" name="Page-1">
    <mxGraphModel dx="2076" dy="2265" grid="1" gridSize="10" guides="1" tooltips="1" connect="1" arrows="1" fold="1" page="1" pageScale="1" pageWidth="827" pageHeight="1169" background="#ffffff" math="0" shadow="0">
      <root>
        <mxCell id="0" />
        <mxCell id="1" parent="0" />
        <mxCell id="2" value="" style="swimlane;shadow=0;strokeColor=#4277BB;fillColor=#ffffff;align=right;startSize=0;collapsible=0;strokeWidth=3;swimlaneFillColor=none;fontColor=#4277BB;labelBackgroundColor=#666666;labelBorderColor=none;" parent="1" vertex="1">
          <mxGeometry x="210" y="-420" width="1460" height="1110" as="geometry" />
        </mxCell>
        <mxCell id="3" value="PUBLIC NETWORK" style="text;html=1;align=left;verticalAlign=top;fontColor=#4277BB;shadow=0;dashed=0;strokeColor=none;fillColor=none;labelBackgroundColor=none;fontStyle=1;fontSize=16;spacingLeft=5;" parent="2" vertex="1">
          <mxGeometry width="170" height="30" as="geometry" />
        </mxCell>
        <mxCell id="4" value="" style="line;strokeWidth=3;direction=south;html=1;shadow=0;labelBackgroundColor=none;fillColor=none;gradientColor=none;fontSize=12;fontColor=#4277BB;align=right;strokeColor=#4277BB;" parent="2" vertex="1">
          <mxGeometry x="205" width="10" height="250" as="geometry" />
        </mxCell>
        <mxCell id="5" value="PROVIDER CLOUD" style="text;html=1;align=left;verticalAlign=top;fontColor=#4277BB;shadow=0;dashed=0;strokeColor=none;fillColor=none;labelBackgroundColor=none;fontStyle=1;fontSize=16;spacingLeft=5;" parent="2" vertex="1">
          <mxGeometry x="210" width="180" height="35" as="geometry" />
        </mxCell>
        <mxCell id="6" value="Application component" style="rounded=0;html=1;shadow=0;labelBackgroundColor=none;strokeColor=none;strokeWidth=2;fillColor=#EBC01A;gradientColor=none;fontSize=12;fontColor=#4277BB;align=left;labelPosition=right;verticalLabelPosition=middle;verticalAlign=middle;spacingLeft=5;" parent="2" vertex="1">
          <mxGeometry x="10" y="730" width="20" height="10" as="geometry" />
        </mxCell>
        <mxCell id="7" value="Infrastructure services" style="rounded=0;html=1;shadow=0;labelBackgroundColor=none;strokeColor=none;strokeWidth=2;fillColor=#8DC642;gradientColor=none;fontSize=12;fontColor=#4277BB;align=left;labelPosition=right;verticalLabelPosition=middle;verticalAlign=middle;spacingLeft=5;" parent="2" vertex="1">
          <mxGeometry x="10" y="750" width="20" height="10" as="geometry" />
        </mxCell>
        <mxCell id="8" value="Management" style="rounded=0;html=1;shadow=0;labelBackgroundColor=none;strokeColor=none;strokeWidth=2;fillColor=#0DB39D;gradientColor=none;fontSize=12;fontColor=#4277BB;align=left;labelPosition=right;verticalLabelPosition=middle;verticalAlign=middle;spacingLeft=5;" parent="2" vertex="1">
          <mxGeometry x="10" y="770" width="20" height="10" as="geometry" />
        </mxCell>
        <mxCell id="9" value="Data store" style="rounded=0;html=1;shadow=0;labelBackgroundColor=none;strokeColor=none;strokeWidth=2;fillColor=#335D81;gradientColor=none;fontSize=12;fontColor=#4277BB;align=left;labelPosition=right;verticalLabelPosition=middle;verticalAlign=middle;spacingLeft=5;" parent="2" vertex="1">
          <mxGeometry x="10" y="790" width="20" height="10" as="geometry" />
        </mxCell>
        <mxCell id="10" value="Analytics" style="rounded=0;html=1;shadow=0;labelBackgroundColor=none;strokeColor=none;strokeWidth=2;fillColor=#744399;gradientColor=none;fontSize=12;fontColor=#4277BB;align=left;labelPosition=right;verticalLabelPosition=middle;verticalAlign=middle;spacingLeft=5;" parent="2" vertex="1">
          <mxGeometry x="10" y="810" width="20" height="10" as="geometry" />
        </mxCell>
        <mxCell id="11" value="Device capabilities" style="rounded=0;html=1;shadow=0;labelBackgroundColor=none;strokeColor=none;strokeWidth=2;fillColor=#A72870;gradientColor=none;fontSize=12;fontColor=#4277BB;align=left;labelPosition=right;verticalLabelPosition=middle;verticalAlign=middle;spacingLeft=5;" parent="2" vertex="1">
          <mxGeometry x="10" y="830" width="20" height="10" as="geometry" />
        </mxCell>
        <mxCell id="12" value="Security" style="rounded=0;html=1;shadow=0;labelBackgroundColor=none;strokeColor=none;strokeWidth=2;fillColor=#E52134;gradientColor=none;fontSize=12;fontColor=#4277BB;align=left;labelPosition=right;verticalLabelPosition=middle;verticalAlign=middle;spacingLeft=5;" parent="2" vertex="1">
          <mxGeometry x="10" y="850" width="20" height="10" as="geometry" />
        </mxCell>
        <mxCell id="13" value="LEGEND" style="text;html=1;align=left;verticalAlign=middle;fontColor=#4277BB;shadow=0;dashed=0;strokeColor=none;fillColor=none;labelBackgroundColor=none;fontStyle=1;fontSize=14;spacingLeft=0;" parent="2" vertex="1">
          <mxGeometry x="10" y="700" width="150" height="20" as="geometry" />
        </mxCell>
        <mxCell id="14" value="Users" style="rounded=0;html=1;shadow=0;labelBackgroundColor=none;strokeColor=none;strokeWidth=2;fillColor=#C2952D;gradientColor=none;fontSize=12;fontColor=#4277BB;align=left;labelPosition=right;verticalLabelPosition=middle;verticalAlign=middle;spacingLeft=5;" parent="2" vertex="1">
          <mxGeometry x="10" y="870" width="20" height="10" as="geometry" />
        </mxCell>
        <mxCell id="16" value="" style="line;strokeWidth=3;direction=south;html=1;shadow=0;labelBackgroundColor=none;fillColor=none;gradientColor=none;fontSize=12;fontColor=#4277BB;align=right;strokeColor=#4277BB;" parent="2" vertex="1">
          <mxGeometry x="205" y="370" width="10" height="810" as="geometry" />
        </mxCell>
        <mxCell id="19" style="edgeStyle=orthogonalEdgeStyle;rounded=0;comic=0;html=1;exitX=1;exitY=0.5;entryX=0;entryY=0.25;startArrow=classic;startFill=1;endArrow=classic;endFill=1;jettySize=auto;orthogonalLoop=1;strokeColor=#4378BB;strokeWidth=2;fontFamily=Helvetica;fontSize=19;fontColor=#CC99FF;endSize=4;startSize=4;" parent="2" source="20" target="26" edge="1">
          <mxGeometry relative="1" as="geometry">
            <Array as="points">
              <mxPoint x="155" y="106" />
              <mxPoint x="155" y="283" />
              <mxPoint x="180" y="283" />
            </Array>
          </mxGeometry>
        </mxCell>
        <mxCell id="20" value="USER" style="aspect=fixed;perimeter=ellipsePerimeter;html=1;align=center;shadow=0;dashed=0;image;image=img/lib/ibm/users/user.svg;labelBackgroundColor=#ffffff;strokeColor=#666666;strokeWidth=3;fillColor=#C2952D;gradientColor=none;fontSize=12;fontColor=#4277BB;" parent="2" vertex="1">
          <mxGeometry x="55" y="76" width="60" height="60" as="geometry" />
        </mxCell>
        <mxCell id="21" style="edgeStyle=orthogonalEdgeStyle;rounded=0;html=1;labelBackgroundColor=#ffffff;startArrow=classic;startFill=1;startSize=4;endArrow=classic;endFill=1;endSize=4;jettySize=auto;orthogonalLoop=1;strokeColor=#4378BB;strokeWidth=2;fontSize=19;fontColor=#CC99FF;" parent="2" source="22" target="26" edge="1">
          <mxGeometry relative="1" as="geometry">
            <Array as="points">
              <mxPoint x="135" y="216" />
              <mxPoint x="135" y="296" />
            </Array>
          </mxGeometry>
        </mxCell>
        <mxCell id="22" value="DEVICES" style="aspect=fixed;perimeter=ellipsePerimeter;html=1;align=center;shadow=0;dashed=0;fontColor=#4277BB;labelBackgroundColor=#ffffff;fontSize=12;spacingTop=3;image;image=img/lib/ibm/users/browser.svg;fontFamily=Helvetica;strokeColor=#666666;strokeWidth=3;fillColor=#C2952D;" parent="2" vertex="1">
          <mxGeometry x="55" y="186" width="60" height="60" as="geometry" />
        </mxCell>
        <mxCell id="25" style="edgeStyle=orthogonalEdgeStyle;rounded=0;html=1;labelBackgroundColor=#ffffff;startArrow=classic;startFill=1;startSize=4;endArrow=classic;endFill=1;endSize=4;jettySize=auto;orthogonalLoop=1;strokeColor=#4378BB;strokeWidth=2;fontSize=19;fontColor=#CC99FF;" parent="2" source="26" target="28" edge="1">
          <mxGeometry relative="1" as="geometry" />
        </mxCell>
        <mxCell id="26" value="EDGE&lt;div&gt;SERVICES&lt;/div&gt;" style="aspect=fixed;perimeter=ellipsePerimeter;html=1;align=center;shadow=0;dashed=0;image;image=img/lib/ibm/infrastructure/edge_services.svg;labelBackgroundColor=#ffffff;strokeColor=#666666;strokeWidth=3;fillColor=#C2952D;gradientColor=none;fontSize=12;fontColor=#4277BB;" parent="2" vertex="1">
          <mxGeometry x="180" y="266" width="60" height="60" as="geometry" />
        </mxCell>
        <mxCell id="28ZTtmCeSpV4QL6FFk7l-147" style="edgeStyle=orthogonalEdgeStyle;rounded=0;orthogonalLoop=1;jettySize=auto;html=1;exitX=1;exitY=0.5;exitDx=0;exitDy=0;fontSize=19;fontColor=#CC99FF;strokeColor=#4378BB;strokeWidth=2;endFill=1;endSize=4;startFill=1;startArrow=classic;startSize=4;" edge="1" parent="2" source="28" target="29">
          <mxGeometry relative="1" as="geometry" />
        </mxCell>
        <mxCell id="28" value="统一门户" style="aspect=fixed;perimeter=ellipsePerimeter;html=1;align=center;shadow=0;dashed=0;fontColor=#4277BB;labelBackgroundColor=#ffffff;fontSize=12;spacingTop=3;image;image=img/lib/ibm/applications/api_developer_portal.svg;fontFamily=Helvetica;strokeColor=#666666;strokeWidth=3;fillColor=#C2952D;" parent="2" vertex="1">
          <mxGeometry x="410" y="200.5" width="60" height="60" as="geometry" />
        </mxCell>
        <mxCell id="29" value="" style="swimlane;shadow=0;strokeColor=#4277BB;fillColor=#ffffff;fontColor=#4277BB;align=right;startSize=0;collapsible=0;strokeWidth=3;" parent="2" vertex="1">
          <mxGeometry x="650" y="160" width="516" height="141" as="geometry" />
        </mxCell>
        <mxCell id="30" value="预算域" style="aspect=fixed;perimeter=ellipsePerimeter;html=1;align=center;shadow=0;dashed=0;fontColor=#4277BB;labelBackgroundColor=#ffffff;fontSize=12;spacingTop=3;image;image=img/lib/ibm/blockchain/existing_enterprise_systems.svg;fontFamily=Helvetica;strokeColor=#666666;strokeWidth=3;fillColor=#C2952D;" parent="29" vertex="1">
          <mxGeometry x="34" y="32" width="60" height="60" as="geometry" />
        </mxCell>
        <mxCell id="31" value="执行域" style="aspect=fixed;perimeter=ellipsePerimeter;html=1;align=center;shadow=0;dashed=0;fontColor=#4277BB;labelBackgroundColor=#ffffff;fontSize=12;spacingTop=3;image;image=img/lib/ibm/blockchain/existing_enterprise_systems.svg;fontFamily=Helvetica;strokeColor=#666666;strokeWidth=3;fillColor=#C2952D;" parent="29" vertex="1">
          <mxGeometry x="162" y="32" width="60" height="60" as="geometry" />
        </mxCell>
        <mxCell id="32" value="核算域" style="aspect=fixed;perimeter=ellipsePerimeter;html=1;align=center;shadow=0;dashed=0;fontColor=#4277BB;labelBackgroundColor=#ffffff;fontSize=12;spacingTop=3;image;image=img/lib/ibm/blockchain/existing_enterprise_systems.svg;fontFamily=Helvetica;strokeColor=#666666;strokeWidth=3;fillColor=#C2952D;" parent="29" vertex="1">
          <mxGeometry x="289" y="32" width="60" height="60" as="geometry" />
        </mxCell>
        <mxCell id="33" value="其他业务管理域" style="aspect=fixed;perimeter=ellipsePerimeter;html=1;align=center;shadow=0;dashed=0;fontColor=#4277BB;labelBackgroundColor=#ffffff;fontSize=12;spacingTop=3;image;image=img/lib/ibm/blockchain/existing_enterprise_systems.svg;fontFamily=Helvetica;strokeColor=#666666;strokeWidth=3;fillColor=#C2952D;" parent="29" vertex="1">
          <mxGeometry x="417" y="32" width="60" height="60" as="geometry" />
        </mxCell>
        <mxCell id="34" value="业务前台" style="text;html=1;align=left;verticalAlign=top;fontColor=#4277BB;shadow=0;dashed=0;strokeColor=none;fillColor=none;labelBackgroundColor=none;fontStyle=0;fontSize=14;spacingLeft=5;" parent="29" vertex="1">
          <mxGeometry width="90" height="26" as="geometry" />
        </mxCell>
        <mxCell id="35" value="" style="swimlane;shadow=0;strokeColor=#4277BB;fillColor=#ffffff;fontColor=#4277BB;align=right;startSize=0;collapsible=0;strokeWidth=3;" parent="2" vertex="1">
          <mxGeometry x="390" y="340" width="516" height="380" as="geometry" />
        </mxCell>
        <mxCell id="52" value="业务中台" style="text;html=1;align=left;verticalAlign=top;fontColor=#4277BB;shadow=0;dashed=0;strokeColor=none;fillColor=none;labelBackgroundColor=none;fontStyle=0;fontSize=14;spacingLeft=5;" parent="35" vertex="1">
          <mxGeometry x="2" width="231" height="24" as="geometry" />
        </mxCell>
        <mxCell id="84" style="edgeStyle=orthogonalEdgeStyle;rounded=0;html=1;entryX=0;entryY=0.5;labelBackgroundColor=#ffffff;startArrow=classic;startFill=1;startSize=4;endArrow=classic;endFill=1;endSize=4;jettySize=auto;orthogonalLoop=1;strokeColor=#EEC11B;strokeWidth=2;fontSize=14;fontColor=#4277BB;" parent="35" source="65" target="68" edge="1">
          <mxGeometry relative="1" as="geometry" />
        </mxCell>
        <mxCell id="90" style="edgeStyle=orthogonalEdgeStyle;rounded=0;html=1;entryX=0.5;entryY=0;labelBackgroundColor=#ffffff;startArrow=classic;startFill=1;startSize=4;endArrow=classic;endFill=1;endSize=4;jettySize=auto;orthogonalLoop=1;strokeColor=#EEC11B;strokeWidth=2;fontSize=14;fontColor=#4277BB;" parent="35" source="65" target="72" edge="1">
          <mxGeometry relative="1" as="geometry" />
        </mxCell>
        <mxCell id="65" value="" style="swimlane;shadow=0;strokeColor=#4277BB;fillColor=#ffffff;fontColor=#4277BB;align=right;startSize=0;collapsible=0;strokeWidth=3;" parent="35" vertex="1">
          <mxGeometry x="25" y="40" width="100" height="80" as="geometry" />
        </mxCell>
        <mxCell id="66" value="基础信息中心" style="aspect=fixed;perimeter=ellipsePerimeter;html=1;align=center;shadow=0;dashed=0;image;image=img/lib/ibm/applications/microservice.svg;labelBackgroundColor=#ffffff;strokeColor=#666666;strokeWidth=3;fillColor=#C2952D;gradientColor=none;fontSize=12;fontColor=#4277BB;" parent="65" vertex="1">
          <mxGeometry x="9" y="10" width="82" height="60" as="geometry" />
        </mxCell>
        <mxCell id="85" style="edgeStyle=orthogonalEdgeStyle;rounded=0;html=1;entryX=0;entryY=0.5;labelBackgroundColor=#ffffff;startArrow=classic;startFill=1;startSize=4;endArrow=classic;endFill=1;endSize=4;jettySize=auto;orthogonalLoop=1;strokeColor=#EEC11B;strokeWidth=2;fontSize=14;fontColor=#4277BB;" parent="35" source="68" target="70" edge="1">
          <mxGeometry relative="1" as="geometry" />
        </mxCell>
        <mxCell id="93" style="edgeStyle=orthogonalEdgeStyle;rounded=0;html=1;entryX=0.5;entryY=0;labelBackgroundColor=#ffffff;startArrow=classic;startFill=1;startSize=4;endArrow=classic;endFill=1;endSize=4;jettySize=auto;orthogonalLoop=1;strokeColor=#EEC11B;strokeWidth=2;fontSize=14;fontColor=#4277BB;" parent="35" source="68" target="74" edge="1">
          <mxGeometry relative="1" as="geometry" />
        </mxCell>
        <mxCell id="68" value="" style="swimlane;shadow=0;strokeColor=#4277BB;fillColor=#ffffff;fontColor=#4277BB;align=right;startSize=0;collapsible=0;strokeWidth=3;" parent="35" vertex="1">
          <mxGeometry x="209" y="40" width="100" height="80" as="geometry" />
        </mxCell>
        <mxCell id="69" value="项目中心" style="aspect=fixed;perimeter=ellipsePerimeter;html=1;align=center;shadow=0;dashed=0;image;image=img/lib/ibm/applications/microservice.svg;labelBackgroundColor=#ffffff;strokeColor=#666666;strokeWidth=3;fillColor=#C2952D;gradientColor=none;fontSize=12;fontColor=#4277BB;" parent="68" vertex="1">
          <mxGeometry x="9" y="10" width="82" height="60" as="geometry" />
        </mxCell>
        <mxCell id="94" style="edgeStyle=orthogonalEdgeStyle;rounded=0;html=1;entryX=0.5;entryY=0;labelBackgroundColor=#ffffff;startArrow=classic;startFill=1;startSize=4;endArrow=classic;endFill=1;endSize=4;jettySize=auto;orthogonalLoop=1;strokeColor=#EEC11B;strokeWidth=2;fontSize=14;fontColor=#4277BB;" parent="35" source="70" target="76" edge="1">
          <mxGeometry relative="1" as="geometry" />
        </mxCell>
        <mxCell id="70" value="" style="swimlane;shadow=0;strokeColor=#4277BB;fillColor=#ffffff;fontColor=#4277BB;align=right;startSize=0;collapsible=0;strokeWidth=3;" parent="35" vertex="1">
          <mxGeometry x="386" y="40" width="100" height="80" as="geometry" />
        </mxCell>
        <mxCell id="71" value="预算中心" style="aspect=fixed;perimeter=ellipsePerimeter;html=1;align=center;shadow=0;dashed=0;image;image=img/lib/ibm/applications/microservice.svg;labelBackgroundColor=#ffffff;strokeColor=#666666;strokeWidth=3;fillColor=#C2952D;gradientColor=none;fontSize=12;fontColor=#4277BB;" parent="70" vertex="1">
          <mxGeometry x="9" y="10" width="82" height="60" as="geometry" />
        </mxCell>
        <mxCell id="86" style="edgeStyle=orthogonalEdgeStyle;rounded=0;html=1;entryX=0;entryY=0.5;labelBackgroundColor=#ffffff;startArrow=classic;startFill=1;startSize=4;endArrow=classic;endFill=1;endSize=4;jettySize=auto;orthogonalLoop=1;strokeColor=#EEC11B;strokeWidth=2;fontSize=14;fontColor=#4277BB;" parent="35" source="72" target="74" edge="1">
          <mxGeometry relative="1" as="geometry" />
        </mxCell>
        <mxCell id="91" style="edgeStyle=orthogonalEdgeStyle;rounded=0;html=1;entryX=0.5;entryY=0;labelBackgroundColor=#ffffff;startArrow=classic;startFill=1;startSize=4;endArrow=classic;endFill=1;endSize=4;jettySize=auto;orthogonalLoop=1;strokeColor=#EEC11B;strokeWidth=2;fontSize=14;fontColor=#4277BB;" parent="35" source="72" target="78" edge="1">
          <mxGeometry relative="1" as="geometry" />
        </mxCell>
        <mxCell id="72" value="" style="swimlane;shadow=0;strokeColor=#4277BB;fillColor=#ffffff;fontColor=#4277BB;align=right;startSize=0;collapsible=0;strokeWidth=3;" parent="35" vertex="1">
          <mxGeometry x="24.99999999999996" y="160" width="100" height="80" as="geometry" />
        </mxCell>
        <mxCell id="73" value="指标中心" style="aspect=fixed;perimeter=ellipsePerimeter;html=1;align=center;shadow=0;dashed=0;image;image=img/lib/ibm/applications/microservice.svg;labelBackgroundColor=#ffffff;strokeColor=#666666;strokeWidth=3;fillColor=#C2952D;gradientColor=none;fontSize=12;fontColor=#4277BB;" parent="72" vertex="1">
          <mxGeometry x="9" y="10" width="82" height="60" as="geometry" />
        </mxCell>
        <mxCell id="87" style="edgeStyle=orthogonalEdgeStyle;rounded=0;html=1;entryX=0;entryY=0.5;labelBackgroundColor=#ffffff;startArrow=classic;startFill=1;startSize=4;endArrow=classic;endFill=1;endSize=4;jettySize=auto;orthogonalLoop=1;strokeColor=#EEC11B;strokeWidth=2;fontSize=14;fontColor=#4277BB;" parent="35" source="74" target="76" edge="1">
          <mxGeometry relative="1" as="geometry" />
        </mxCell>
        <mxCell id="92" style="edgeStyle=orthogonalEdgeStyle;rounded=0;html=1;entryX=0.5;entryY=0;labelBackgroundColor=#ffffff;startArrow=classic;startFill=1;startSize=4;endArrow=classic;endFill=1;endSize=4;jettySize=auto;orthogonalLoop=1;strokeColor=#EEC11B;strokeWidth=2;fontSize=14;fontColor=#4277BB;" parent="35" source="74" target="80" edge="1">
          <mxGeometry relative="1" as="geometry" />
        </mxCell>
        <mxCell id="74" value="" style="swimlane;shadow=0;strokeColor=#4277BB;fillColor=#ffffff;fontColor=#4277BB;align=right;startSize=0;collapsible=0;strokeWidth=3;" parent="35" vertex="1">
          <mxGeometry x="208.99999999999977" y="160" width="100" height="80" as="geometry" />
        </mxCell>
        <mxCell id="75" value="支付中心" style="aspect=fixed;perimeter=ellipsePerimeter;html=1;align=center;shadow=0;dashed=0;image;image=img/lib/ibm/applications/microservice.svg;labelBackgroundColor=#ffffff;strokeColor=#666666;strokeWidth=3;fillColor=#C2952D;gradientColor=none;fontSize=12;fontColor=#4277BB;" parent="74" vertex="1">
          <mxGeometry x="9" y="10" width="82" height="60" as="geometry" />
        </mxCell>
        <mxCell id="95" style="edgeStyle=orthogonalEdgeStyle;rounded=0;html=1;entryX=0.5;entryY=0;labelBackgroundColor=#ffffff;startArrow=classic;startFill=1;startSize=4;endArrow=classic;endFill=1;endSize=4;jettySize=auto;orthogonalLoop=1;strokeColor=#EEC11B;strokeWidth=2;fontSize=14;fontColor=#4277BB;" parent="35" source="76" target="82" edge="1">
          <mxGeometry relative="1" as="geometry" />
        </mxCell>
        <mxCell id="76" value="" style="swimlane;shadow=0;strokeColor=#4277BB;fillColor=#ffffff;fontColor=#4277BB;align=right;startSize=0;collapsible=0;strokeWidth=3;" parent="35" vertex="1">
          <mxGeometry x="386.00000000000017" y="160" width="100" height="80" as="geometry" />
        </mxCell>
        <mxCell id="77" value="..." style="aspect=fixed;perimeter=ellipsePerimeter;html=1;align=center;shadow=0;dashed=0;image;image=img/lib/ibm/applications/microservice.svg;labelBackgroundColor=#ffffff;strokeColor=#666666;strokeWidth=3;fillColor=#C2952D;gradientColor=none;fontSize=12;fontColor=#4277BB;" parent="76" vertex="1">
          <mxGeometry x="9" y="10" width="82" height="60" as="geometry" />
        </mxCell>
        <mxCell id="88" style="edgeStyle=orthogonalEdgeStyle;rounded=0;html=1;entryX=0;entryY=0.5;labelBackgroundColor=#ffffff;startArrow=classic;startFill=1;startSize=4;endArrow=classic;endFill=1;endSize=4;jettySize=auto;orthogonalLoop=1;strokeColor=#EEC11B;strokeWidth=2;fontSize=14;fontColor=#4277BB;" parent="35" source="78" target="80" edge="1">
          <mxGeometry relative="1" as="geometry" />
        </mxCell>
        <mxCell id="78" value="" style="swimlane;shadow=0;strokeColor=#4277BB;fillColor=#ffffff;fontColor=#4277BB;align=right;startSize=0;collapsible=0;strokeWidth=3;" parent="35" vertex="1">
          <mxGeometry x="24.99999999999996" y="280" width="100" height="80" as="geometry" />
        </mxCell>
        <mxCell id="79" value="财务中心" style="aspect=fixed;perimeter=ellipsePerimeter;html=1;align=center;shadow=0;dashed=0;image;image=img/lib/ibm/applications/microservice.svg;labelBackgroundColor=#ffffff;strokeColor=#666666;strokeWidth=3;fillColor=#C2952D;gradientColor=none;fontSize=12;fontColor=#4277BB;" parent="78" vertex="1">
          <mxGeometry x="9" y="10" width="82" height="60" as="geometry" />
        </mxCell>
        <mxCell id="89" style="edgeStyle=orthogonalEdgeStyle;rounded=0;html=1;entryX=0;entryY=0.5;labelBackgroundColor=#ffffff;startArrow=classic;startFill=1;startSize=4;endArrow=classic;endFill=1;endSize=4;jettySize=auto;orthogonalLoop=1;strokeColor=#EEC11B;strokeWidth=2;fontSize=14;fontColor=#4277BB;" parent="35" source="80" target="82" edge="1">
          <mxGeometry relative="1" as="geometry" />
        </mxCell>
        <mxCell id="80" value="" style="swimlane;shadow=0;strokeColor=#4277BB;fillColor=#ffffff;fontColor=#4277BB;align=right;startSize=0;collapsible=0;strokeWidth=3;" parent="35" vertex="1">
          <mxGeometry x="208.99999999999977" y="280" width="100" height="80" as="geometry" />
        </mxCell>
        <mxCell id="81" value="决算中心" style="aspect=fixed;perimeter=ellipsePerimeter;html=1;align=center;shadow=0;dashed=0;image;image=img/lib/ibm/applications/microservice.svg;labelBackgroundColor=#ffffff;strokeColor=#666666;strokeWidth=3;fillColor=#C2952D;gradientColor=none;fontSize=12;fontColor=#4277BB;" parent="80" vertex="1">
          <mxGeometry x="9" y="10" width="82" height="60" as="geometry" />
        </mxCell>
        <mxCell id="82" value="" style="swimlane;shadow=0;strokeColor=#4277BB;fillColor=#ffffff;fontColor=#4277BB;align=right;startSize=0;collapsible=0;strokeWidth=3;" parent="35" vertex="1">
          <mxGeometry x="386" y="280" width="100" height="80" as="geometry" />
        </mxCell>
        <mxCell id="83" value="公共服务中心" style="aspect=fixed;perimeter=ellipsePerimeter;html=1;align=center;shadow=0;dashed=0;image;image=img/lib/ibm/applications/microservice.svg;labelBackgroundColor=#ffffff;strokeColor=#666666;strokeWidth=3;fillColor=#C2952D;gradientColor=none;fontSize=12;fontColor=#4277BB;" parent="82" vertex="1">
          <mxGeometry x="9" y="10" width="82" height="60" as="geometry" />
        </mxCell>
        <mxCell id="17" value="" style="swimlane;shadow=0;strokeColor=#4277BB;fillColor=#ffffff;fontColor=#4277BB;align=right;startSize=0;collapsible=0;strokeWidth=3;swimlaneFillColor=none;" parent="2" vertex="1">
          <mxGeometry x="660" y="950" width="516" height="130" as="geometry" />
        </mxCell>
        <mxCell id="28ZTtmCeSpV4QL6FFk7l-96" value="云存储" style="aspect=fixed;perimeter=ellipsePerimeter;html=1;align=center;shadow=0;dashed=0;fontColor=#4277BB;labelBackgroundColor=#ffffff;fontSize=12;spacingTop=3;image;image=img/lib/ibm/data/data_services.svg;" vertex="1" parent="17">
          <mxGeometry x="140" y="35" width="60" height="60" as="geometry" />
        </mxCell>
        <mxCell id="28ZTtmCeSpV4QL6FFk7l-97" value="云安全" style="aspect=fixed;perimeter=ellipsePerimeter;html=1;align=center;shadow=0;dashed=0;fontColor=#4277BB;labelBackgroundColor=#ffffff;fontSize=12;spacingTop=3;image;image=img/lib/ibm/security/security_services.svg;" vertex="1" parent="17">
          <mxGeometry x="340" y="35" width="60" height="60" as="geometry" />
        </mxCell>
        <mxCell id="28ZTtmCeSpV4QL6FFk7l-98" value="云网络" style="aspect=fixed;perimeter=ellipsePerimeter;html=1;align=center;shadow=0;dashed=0;fontColor=#4277BB;labelBackgroundColor=#ffffff;fontSize=12;spacingTop=3;image;image=img/lib/ibm/infrastructure/channels.svg;" vertex="1" parent="17">
          <mxGeometry x="240" y="35" width="60" height="60" as="geometry" />
        </mxCell>
        <mxCell id="28ZTtmCeSpV4QL6FFk7l-101" value="云基础设施" style="aspect=fixed;perimeter=ellipsePerimeter;html=1;align=center;shadow=0;dashed=0;fontColor=#4277BB;labelBackgroundColor=#ffffff;fontSize=12;spacingTop=3;image;image=img/lib/ibm/vpc/Enterprise2.svg;" vertex="1" parent="17">
          <mxGeometry x="430" y="41" width="60" height="48" as="geometry" />
        </mxCell>
        <mxCell id="28ZTtmCeSpV4QL6FFk7l-102" value="云计算" style="aspect=fixed;perimeter=ellipsePerimeter;html=1;align=center;shadow=0;dashed=0;fontColor=#4277BB;labelBackgroundColor=#ffffff;fontSize=12;spacingTop=3;image;image=img/lib/ibm/vpc/PowerInstance.svg;" vertex="1" parent="17">
          <mxGeometry x="38" y="35" width="60" height="60" as="geometry" />
        </mxCell>
        <mxCell id="28ZTtmCeSpV4QL6FFk7l-103" value="云资源基础设施（Iaas）" style="text;html=1;align=left;verticalAlign=top;fontColor=#4277BB;shadow=0;dashed=0;strokeColor=none;fillColor=none;labelBackgroundColor=none;fontStyle=0;fontSize=14;spacingLeft=5;" vertex="1" parent="17">
          <mxGeometry x="-4" width="231" height="24" as="geometry" />
        </mxCell>
        <mxCell id="55" value="" style="swimlane;shadow=0;strokeColor=#4277BB;fillColor=#ffffff;fontColor=#4277BB;align=right;startSize=0;collapsible=0;strokeWidth=3;" parent="2" vertex="1">
          <mxGeometry x="590" y="750" width="656" height="164" as="geometry" />
        </mxCell>
        <mxCell id="56" value="TRedis&lt;br&gt;分布式缓存" style="aspect=fixed;perimeter=ellipsePerimeter;html=1;align=center;shadow=0;dashed=0;fontColor=#4277BB;labelBackgroundColor=#ffffff;fontSize=12;spacingTop=3;image;image=img/lib/ibm/data/caches.svg;fontFamily=Helvetica;strokeColor=#666666;strokeWidth=3;fillColor=#C2952D;" parent="55" vertex="1">
          <mxGeometry x="34" y="52" width="60" height="60" as="geometry" />
        </mxCell>
        <mxCell id="60" value="技术组件（Paas）" style="text;html=1;align=left;verticalAlign=top;fontColor=#4277BB;shadow=0;dashed=0;strokeColor=none;fillColor=none;labelBackgroundColor=none;fontStyle=0;fontSize=14;spacingLeft=5;" parent="55" vertex="1">
          <mxGeometry x="1" width="231" height="24" as="geometry" />
        </mxCell>
        <mxCell id="28ZTtmCeSpV4QL6FFk7l-104" value="TDSQL&lt;br&gt;分布式数据库" style="aspect=fixed;perimeter=ellipsePerimeter;html=1;align=center;shadow=0;dashed=0;fontColor=#4277BB;labelBackgroundColor=#ffffff;fontSize=12;spacingTop=3;image;image=img/lib/ibm/data/data_services.svg;" vertex="1" parent="55">
          <mxGeometry x="140" y="52" width="60" height="60" as="geometry" />
        </mxCell>
        <mxCell id="28ZTtmCeSpV4QL6FFk7l-106" value="TKE-容器服务&lt;br&gt;服务治理" style="aspect=fixed;perimeter=ellipsePerimeter;html=1;align=center;shadow=0;dashed=0;fontColor=#4277BB;labelBackgroundColor=#ffffff;fontSize=12;spacingTop=3;image;image=img/lib/ibm/miscellaneous/ibm_containers.svg;fontFamily=Helvetica;strokeColor=#000000;fillColor=#ffffff;" vertex="1" parent="55">
          <mxGeometry x="246" y="52" width="60" height="60" as="geometry" />
        </mxCell>
        <mxCell id="28ZTtmCeSpV4QL6FFk7l-107" value="TSF-腾讯微服务平台&lt;br&gt;微服务开发框架" style="aspect=fixed;perimeter=ellipsePerimeter;html=1;align=center;shadow=0;dashed=0;fontColor=#4277BB;labelBackgroundColor=#ffffff;fontSize=12;spacingTop=3;image;image=img/lib/ibm/miscellaneous/bluemix.svg;" vertex="1" parent="55">
          <mxGeometry x="356" y="52" width="60" height="60" as="geometry" />
        </mxCell>
        <mxCell id="28ZTtmCeSpV4QL6FFk7l-146" value="多数据源同步" style="aspect=fixed;perimeter=ellipsePerimeter;html=1;align=center;shadow=0;dashed=0;fontColor=#4277BB;labelBackgroundColor=#ffffff;fontSize=12;spacingTop=3;image;image=img/lib/ibm/analytics/data_repositories.svg;" vertex="1" parent="55">
          <mxGeometry x="462" y="52" width="60" height="60" as="geometry" />
        </mxCell>
        <mxCell id="28ZTtmCeSpV4QL6FFk7l-156" value="&lt;span&gt;&lt;br&gt;&lt;br&gt;&amp;nbsp; &amp;nbsp; &amp;nbsp; &amp;nbsp; &amp;nbsp; &amp;nbsp; &amp;nbsp; &amp;nbsp; &amp;nbsp; &amp;nbsp; &amp;nbsp; &amp;nbsp; &amp;nbsp; &amp;nbsp; &amp;nbsp; &amp;nbsp; &amp;nbsp; &amp;nbsp; CMQ-消息中间件&lt;/span&gt;" style="outlineConnect=0;gradientColor=none;strokeColor=#ffffff;fillColor=#232F3E;dashed=0;verticalLabelPosition=middle;verticalAlign=bottom;align=center;html=1;whiteSpace=wrap;fontSize=10;fontStyle=1;spacing=3;shape=mxgraph.aws4.productIcon;prIcon=mxgraph.aws4.mq;labelBackgroundColor=none;fontColor=#4277BB;" vertex="1" parent="55">
          <mxGeometry x="547" y="40" width="80" height="120" as="geometry" />
        </mxCell>
        <mxCell id="28ZTtmCeSpV4QL6FFk7l-111" value="" style="swimlane;shadow=0;strokeColor=#4277BB;fillColor=#ffffff;fontColor=#4277BB;align=right;startSize=0;collapsible=0;strokeWidth=3;" vertex="1" parent="2">
          <mxGeometry x="920" y="340" width="516" height="380" as="geometry" />
        </mxCell>
        <mxCell id="28ZTtmCeSpV4QL6FFk7l-112" value="技术中台" style="text;html=1;align=left;verticalAlign=top;fontColor=#4277BB;shadow=0;dashed=0;strokeColor=none;fillColor=none;labelBackgroundColor=none;fontStyle=0;fontSize=14;spacingLeft=5;" vertex="1" parent="28ZTtmCeSpV4QL6FFk7l-111">
          <mxGeometry x="2" width="231" height="24" as="geometry" />
        </mxCell>
        <mxCell id="28ZTtmCeSpV4QL6FFk7l-113" style="edgeStyle=orthogonalEdgeStyle;rounded=0;html=1;entryX=0;entryY=0.5;labelBackgroundColor=#ffffff;startArrow=classic;startFill=1;startSize=4;endArrow=classic;endFill=1;endSize=4;jettySize=auto;orthogonalLoop=1;strokeColor=#EEC11B;strokeWidth=2;fontSize=14;fontColor=#4277BB;" edge="1" parent="28ZTtmCeSpV4QL6FFk7l-111" source="28ZTtmCeSpV4QL6FFk7l-115" target="28ZTtmCeSpV4QL6FFk7l-119">
          <mxGeometry relative="1" as="geometry" />
        </mxCell>
        <mxCell id="28ZTtmCeSpV4QL6FFk7l-114" style="edgeStyle=orthogonalEdgeStyle;rounded=0;html=1;entryX=0.5;entryY=0;labelBackgroundColor=#ffffff;startArrow=classic;startFill=1;startSize=4;endArrow=classic;endFill=1;endSize=4;jettySize=auto;orthogonalLoop=1;strokeColor=#EEC11B;strokeWidth=2;fontSize=14;fontColor=#4277BB;" edge="1" parent="28ZTtmCeSpV4QL6FFk7l-111" source="28ZTtmCeSpV4QL6FFk7l-115" target="28ZTtmCeSpV4QL6FFk7l-126">
          <mxGeometry relative="1" as="geometry" />
        </mxCell>
        <mxCell id="28ZTtmCeSpV4QL6FFk7l-115" value="" style="swimlane;shadow=0;strokeColor=#4277BB;fillColor=#ffffff;fontColor=#4277BB;align=right;startSize=0;collapsible=0;strokeWidth=3;" vertex="1" parent="28ZTtmCeSpV4QL6FFk7l-111">
          <mxGeometry x="25" y="40" width="100" height="80" as="geometry" />
        </mxCell>
        <mxCell id="28ZTtmCeSpV4QL6FFk7l-116" value="门户中心" style="aspect=fixed;perimeter=ellipsePerimeter;html=1;align=center;shadow=0;dashed=0;image;image=img/lib/ibm/applications/microservice.svg;labelBackgroundColor=#ffffff;strokeColor=#666666;strokeWidth=3;fillColor=#C2952D;gradientColor=none;fontSize=12;fontColor=#4277BB;" vertex="1" parent="28ZTtmCeSpV4QL6FFk7l-115">
          <mxGeometry x="9" y="10" width="82" height="60" as="geometry" />
        </mxCell>
        <mxCell id="28ZTtmCeSpV4QL6FFk7l-117" style="edgeStyle=orthogonalEdgeStyle;rounded=0;html=1;entryX=0;entryY=0.5;labelBackgroundColor=#ffffff;startArrow=classic;startFill=1;startSize=4;endArrow=classic;endFill=1;endSize=4;jettySize=auto;orthogonalLoop=1;strokeColor=#EEC11B;strokeWidth=2;fontSize=14;fontColor=#4277BB;" edge="1" parent="28ZTtmCeSpV4QL6FFk7l-111" source="28ZTtmCeSpV4QL6FFk7l-119" target="28ZTtmCeSpV4QL6FFk7l-122">
          <mxGeometry relative="1" as="geometry" />
        </mxCell>
        <mxCell id="28ZTtmCeSpV4QL6FFk7l-118" style="edgeStyle=orthogonalEdgeStyle;rounded=0;html=1;entryX=0.5;entryY=0;labelBackgroundColor=#ffffff;startArrow=classic;startFill=1;startSize=4;endArrow=classic;endFill=1;endSize=4;jettySize=auto;orthogonalLoop=1;strokeColor=#EEC11B;strokeWidth=2;fontSize=14;fontColor=#4277BB;" edge="1" parent="28ZTtmCeSpV4QL6FFk7l-111" source="28ZTtmCeSpV4QL6FFk7l-119" target="28ZTtmCeSpV4QL6FFk7l-130">
          <mxGeometry relative="1" as="geometry" />
        </mxCell>
        <mxCell id="28ZTtmCeSpV4QL6FFk7l-119" value="" style="swimlane;shadow=0;strokeColor=#4277BB;fillColor=#ffffff;fontColor=#4277BB;align=right;startSize=0;collapsible=0;strokeWidth=3;" vertex="1" parent="28ZTtmCeSpV4QL6FFk7l-111">
          <mxGeometry x="209" y="40" width="100" height="80" as="geometry" />
        </mxCell>
        <mxCell id="28ZTtmCeSpV4QL6FFk7l-120" value="流程中心" style="aspect=fixed;perimeter=ellipsePerimeter;html=1;align=center;shadow=0;dashed=0;image;image=img/lib/ibm/applications/microservice.svg;labelBackgroundColor=#ffffff;strokeColor=#666666;strokeWidth=3;fillColor=#C2952D;gradientColor=none;fontSize=12;fontColor=#4277BB;" vertex="1" parent="28ZTtmCeSpV4QL6FFk7l-119">
          <mxGeometry x="9" y="10" width="82" height="60" as="geometry" />
        </mxCell>
        <mxCell id="28ZTtmCeSpV4QL6FFk7l-121" style="edgeStyle=orthogonalEdgeStyle;rounded=0;html=1;entryX=0.5;entryY=0;labelBackgroundColor=#ffffff;startArrow=classic;startFill=1;startSize=4;endArrow=classic;endFill=1;endSize=4;jettySize=auto;orthogonalLoop=1;strokeColor=#EEC11B;strokeWidth=2;fontSize=14;fontColor=#4277BB;" edge="1" parent="28ZTtmCeSpV4QL6FFk7l-111" source="28ZTtmCeSpV4QL6FFk7l-122" target="28ZTtmCeSpV4QL6FFk7l-133">
          <mxGeometry relative="1" as="geometry" />
        </mxCell>
        <mxCell id="28ZTtmCeSpV4QL6FFk7l-122" value="" style="swimlane;shadow=0;strokeColor=#4277BB;fillColor=#ffffff;fontColor=#4277BB;align=right;startSize=0;collapsible=0;strokeWidth=3;" vertex="1" parent="28ZTtmCeSpV4QL6FFk7l-111">
          <mxGeometry x="386" y="40" width="100" height="80" as="geometry" />
        </mxCell>
        <mxCell id="28ZTtmCeSpV4QL6FFk7l-123" value="文件中心" style="aspect=fixed;perimeter=ellipsePerimeter;html=1;align=center;shadow=0;dashed=0;image;image=img/lib/ibm/applications/microservice.svg;labelBackgroundColor=#ffffff;strokeColor=#666666;strokeWidth=3;fillColor=#C2952D;gradientColor=none;fontSize=12;fontColor=#4277BB;" vertex="1" parent="28ZTtmCeSpV4QL6FFk7l-122">
          <mxGeometry x="9" y="10" width="82" height="60" as="geometry" />
        </mxCell>
        <mxCell id="28ZTtmCeSpV4QL6FFk7l-124" style="edgeStyle=orthogonalEdgeStyle;rounded=0;html=1;entryX=0;entryY=0.5;labelBackgroundColor=#ffffff;startArrow=classic;startFill=1;startSize=4;endArrow=classic;endFill=1;endSize=4;jettySize=auto;orthogonalLoop=1;strokeColor=#EEC11B;strokeWidth=2;fontSize=14;fontColor=#4277BB;" edge="1" parent="28ZTtmCeSpV4QL6FFk7l-111" source="28ZTtmCeSpV4QL6FFk7l-126" target="28ZTtmCeSpV4QL6FFk7l-130">
          <mxGeometry relative="1" as="geometry" />
        </mxCell>
        <mxCell id="28ZTtmCeSpV4QL6FFk7l-125" style="edgeStyle=orthogonalEdgeStyle;rounded=0;html=1;entryX=0.5;entryY=0;labelBackgroundColor=#ffffff;startArrow=classic;startFill=1;startSize=4;endArrow=classic;endFill=1;endSize=4;jettySize=auto;orthogonalLoop=1;strokeColor=#EEC11B;strokeWidth=2;fontSize=14;fontColor=#4277BB;" edge="1" parent="28ZTtmCeSpV4QL6FFk7l-111" source="28ZTtmCeSpV4QL6FFk7l-126" target="28ZTtmCeSpV4QL6FFk7l-136">
          <mxGeometry relative="1" as="geometry" />
        </mxCell>
        <mxCell id="28ZTtmCeSpV4QL6FFk7l-126" value="" style="swimlane;shadow=0;strokeColor=#4277BB;fillColor=#ffffff;fontColor=#4277BB;align=right;startSize=0;collapsible=0;strokeWidth=3;" vertex="1" parent="28ZTtmCeSpV4QL6FFk7l-111">
          <mxGeometry x="24.99999999999996" y="160" width="100" height="80" as="geometry" />
        </mxCell>
        <mxCell id="28ZTtmCeSpV4QL6FFk7l-127" value="用户中心" style="aspect=fixed;perimeter=ellipsePerimeter;html=1;align=center;shadow=0;dashed=0;image;image=img/lib/ibm/applications/microservice.svg;labelBackgroundColor=#ffffff;strokeColor=#666666;strokeWidth=3;fillColor=#C2952D;gradientColor=none;fontSize=12;fontColor=#4277BB;" vertex="1" parent="28ZTtmCeSpV4QL6FFk7l-126">
          <mxGeometry x="9" y="10" width="82" height="60" as="geometry" />
        </mxCell>
        <mxCell id="28ZTtmCeSpV4QL6FFk7l-128" style="edgeStyle=orthogonalEdgeStyle;rounded=0;html=1;entryX=0;entryY=0.5;labelBackgroundColor=#ffffff;startArrow=classic;startFill=1;startSize=4;endArrow=classic;endFill=1;endSize=4;jettySize=auto;orthogonalLoop=1;strokeColor=#EEC11B;strokeWidth=2;fontSize=14;fontColor=#4277BB;" edge="1" parent="28ZTtmCeSpV4QL6FFk7l-111" source="28ZTtmCeSpV4QL6FFk7l-130" target="28ZTtmCeSpV4QL6FFk7l-133">
          <mxGeometry relative="1" as="geometry" />
        </mxCell>
        <mxCell id="28ZTtmCeSpV4QL6FFk7l-129" style="edgeStyle=orthogonalEdgeStyle;rounded=0;html=1;entryX=0.5;entryY=0;labelBackgroundColor=#ffffff;startArrow=classic;startFill=1;startSize=4;endArrow=classic;endFill=1;endSize=4;jettySize=auto;orthogonalLoop=1;strokeColor=#EEC11B;strokeWidth=2;fontSize=14;fontColor=#4277BB;" edge="1" parent="28ZTtmCeSpV4QL6FFk7l-111" source="28ZTtmCeSpV4QL6FFk7l-130" target="28ZTtmCeSpV4QL6FFk7l-139">
          <mxGeometry relative="1" as="geometry" />
        </mxCell>
        <mxCell id="28ZTtmCeSpV4QL6FFk7l-130" value="" style="swimlane;shadow=0;strokeColor=#4277BB;fillColor=#ffffff;fontColor=#4277BB;align=right;startSize=0;collapsible=0;strokeWidth=3;" vertex="1" parent="28ZTtmCeSpV4QL6FFk7l-111">
          <mxGeometry x="208.99999999999977" y="160" width="100" height="80" as="geometry" />
        </mxCell>
        <mxCell id="28ZTtmCeSpV4QL6FFk7l-131" value="消息中心" style="aspect=fixed;perimeter=ellipsePerimeter;html=1;align=center;shadow=0;dashed=0;image;image=img/lib/ibm/applications/microservice.svg;labelBackgroundColor=#ffffff;strokeColor=#666666;strokeWidth=3;fillColor=#C2952D;gradientColor=none;fontSize=12;fontColor=#4277BB;" vertex="1" parent="28ZTtmCeSpV4QL6FFk7l-130">
          <mxGeometry x="9" y="10" width="82" height="60" as="geometry" />
        </mxCell>
        <mxCell id="28ZTtmCeSpV4QL6FFk7l-132" style="edgeStyle=orthogonalEdgeStyle;rounded=0;html=1;entryX=0.5;entryY=0;labelBackgroundColor=#ffffff;startArrow=classic;startFill=1;startSize=4;endArrow=classic;endFill=1;endSize=4;jettySize=auto;orthogonalLoop=1;strokeColor=#EEC11B;strokeWidth=2;fontSize=14;fontColor=#4277BB;" edge="1" parent="28ZTtmCeSpV4QL6FFk7l-111" source="28ZTtmCeSpV4QL6FFk7l-133" target="28ZTtmCeSpV4QL6FFk7l-141">
          <mxGeometry relative="1" as="geometry" />
        </mxCell>
        <mxCell id="28ZTtmCeSpV4QL6FFk7l-133" value="" style="swimlane;shadow=0;strokeColor=#4277BB;fillColor=#ffffff;fontColor=#4277BB;align=right;startSize=0;collapsible=0;strokeWidth=3;" vertex="1" parent="28ZTtmCeSpV4QL6FFk7l-111">
          <mxGeometry x="386.00000000000017" y="160" width="100" height="80" as="geometry" />
        </mxCell>
        <mxCell id="28ZTtmCeSpV4QL6FFk7l-134" value="调度中心" style="aspect=fixed;perimeter=ellipsePerimeter;html=1;align=center;shadow=0;dashed=0;image;image=img/lib/ibm/applications/microservice.svg;labelBackgroundColor=#ffffff;strokeColor=#666666;strokeWidth=3;fillColor=#C2952D;gradientColor=none;fontSize=12;fontColor=#4277BB;" vertex="1" parent="28ZTtmCeSpV4QL6FFk7l-133">
          <mxGeometry x="9" y="10" width="82" height="60" as="geometry" />
        </mxCell>
        <mxCell id="28ZTtmCeSpV4QL6FFk7l-135" style="edgeStyle=orthogonalEdgeStyle;rounded=0;html=1;entryX=0;entryY=0.5;labelBackgroundColor=#ffffff;startArrow=classic;startFill=1;startSize=4;endArrow=classic;endFill=1;endSize=4;jettySize=auto;orthogonalLoop=1;strokeColor=#EEC11B;strokeWidth=2;fontSize=14;fontColor=#4277BB;" edge="1" parent="28ZTtmCeSpV4QL6FFk7l-111" source="28ZTtmCeSpV4QL6FFk7l-136" target="28ZTtmCeSpV4QL6FFk7l-139">
          <mxGeometry relative="1" as="geometry" />
        </mxCell>
        <mxCell id="28ZTtmCeSpV4QL6FFk7l-136" value="" style="swimlane;shadow=0;strokeColor=#4277BB;fillColor=#ffffff;fontColor=#4277BB;align=right;startSize=0;collapsible=0;strokeWidth=3;" vertex="1" parent="28ZTtmCeSpV4QL6FFk7l-111">
          <mxGeometry x="24.99999999999996" y="280" width="100" height="80" as="geometry" />
        </mxCell>
        <mxCell id="28ZTtmCeSpV4QL6FFk7l-137" value="权限中心" style="aspect=fixed;perimeter=ellipsePerimeter;html=1;align=center;shadow=0;dashed=0;image;image=img/lib/ibm/applications/microservice.svg;labelBackgroundColor=#ffffff;strokeColor=#666666;strokeWidth=3;fillColor=#C2952D;gradientColor=none;fontSize=12;fontColor=#4277BB;" vertex="1" parent="28ZTtmCeSpV4QL6FFk7l-136">
          <mxGeometry x="9" y="10" width="82" height="60" as="geometry" />
        </mxCell>
        <mxCell id="28ZTtmCeSpV4QL6FFk7l-138" style="edgeStyle=orthogonalEdgeStyle;rounded=0;html=1;entryX=0;entryY=0.5;labelBackgroundColor=#ffffff;startArrow=classic;startFill=1;startSize=4;endArrow=classic;endFill=1;endSize=4;jettySize=auto;orthogonalLoop=1;strokeColor=#EEC11B;strokeWidth=2;fontSize=14;fontColor=#4277BB;" edge="1" parent="28ZTtmCeSpV4QL6FFk7l-111" source="28ZTtmCeSpV4QL6FFk7l-139" target="28ZTtmCeSpV4QL6FFk7l-141">
          <mxGeometry relative="1" as="geometry" />
        </mxCell>
        <mxCell id="28ZTtmCeSpV4QL6FFk7l-139" value="" style="swimlane;shadow=0;strokeColor=#4277BB;fillColor=#ffffff;fontColor=#4277BB;align=right;startSize=0;collapsible=0;strokeWidth=3;" vertex="1" parent="28ZTtmCeSpV4QL6FFk7l-111">
          <mxGeometry x="208.99999999999977" y="280" width="100" height="80" as="geometry" />
        </mxCell>
        <mxCell id="28ZTtmCeSpV4QL6FFk7l-140" value="日志中心" style="aspect=fixed;perimeter=ellipsePerimeter;html=1;align=center;shadow=0;dashed=0;image;image=img/lib/ibm/applications/microservice.svg;labelBackgroundColor=#ffffff;strokeColor=#666666;strokeWidth=3;fillColor=#C2952D;gradientColor=none;fontSize=12;fontColor=#4277BB;" vertex="1" parent="28ZTtmCeSpV4QL6FFk7l-139">
          <mxGeometry x="9" y="10" width="82" height="60" as="geometry" />
        </mxCell>
        <mxCell id="28ZTtmCeSpV4QL6FFk7l-141" value="" style="swimlane;shadow=0;strokeColor=#4277BB;fillColor=#ffffff;fontColor=#4277BB;align=right;startSize=0;collapsible=0;strokeWidth=3;" vertex="1" parent="28ZTtmCeSpV4QL6FFk7l-111">
          <mxGeometry x="386.00000000000017" y="280" width="100" height="80" as="geometry" />
        </mxCell>
        <mxCell id="28ZTtmCeSpV4QL6FFk7l-142" value="..." style="aspect=fixed;perimeter=ellipsePerimeter;html=1;align=center;shadow=0;dashed=0;image;image=img/lib/ibm/applications/microservice.svg;labelBackgroundColor=#ffffff;strokeColor=#666666;strokeWidth=3;fillColor=#C2952D;gradientColor=none;fontSize=12;fontColor=#4277BB;" vertex="1" parent="28ZTtmCeSpV4QL6FFk7l-141">
          <mxGeometry x="9" y="10" width="82" height="60" as="geometry" />
        </mxCell>
      </root>
    </mxGraphModel>
  </diagram>
</mxfile>
